<svg xmlns="http://www.w3.org/2000/svg" viewBox="0 0 500 500" role="img" aria-labelledby="t"><title id="t">Babyrobbe</title><rect width="500" height="500" rx="60" fill="#eef9ff"/><path d="M62 384c64-32 127-27 187-6 70 25 129 18 189-10l35 64H35z" fill="#dff5ff"/><ellipse cx="247" cy="285" rx="151" ry="88" fill="#f5fbff"/><circle cx="340" cy="244" r="65" fill="#f7fcff"/><circle cx="322" cy="236" r="8" fill="#12333d"/><circle cx="368" cy="236" r="8" fill="#12333d"/><ellipse cx="346" cy="258" rx="13" ry="9" fill="#4e6570"/><path d="M320 274c17 14 35 14 52 0" fill="none" stroke="#4e6570" stroke-width="6" stroke-linecap="round"/><path d="M284 269c-38 3-72 17-101 43" fill="none" stroke="#d8e7ec" stroke-width="14" stroke-linecap="round"/><path d="M140 302c-36 22-61 52-75 91 48-5 85-21 112-49z" fill="#ecf7fb"/><path d="M270 352c-24 23-38 50-43 82 44-8 75-27 94-58z" fill="#ecf7fb"/><circle cx="133" cy="158" r="8" fill="#54d2c6"/><circle cx="174" cy="120" r="6" fill="#54d2c6"/></svg>
