<svg xmlns="http://www.w3.org/2000/svg" viewBox="0 0 500 500" role="img" aria-labelledby="t"><title id="t">Delfin</title><rect width="500" height="500" rx="60" fill="#e8fbff"/><path d="M74 294c89-111 207-139 348-71-64 8-103 26-136 63-54 60-133 63-212 8z" fill="#58aecd"/><path d="M196 199c20-45 50-72 90-83-14 45-7 82 22 113z" fill="#4b9fbd"/><path d="M373 217l70-39c-9 39-6 72 8 101z" fill="#58aecd"/><path d="M138 311c-24 25-42 55-54 91 43-6 77-22 102-49z" fill="#4b9fbd"/><circle cx="295" cy="229" r="7" fill="#12333d"/><path d="M314 246c22 13 46 13 70 0" fill="none" stroke="#e8fbff" stroke-width="7" stroke-linecap="round"/><path d="M105 385c58-23 102 23 159 0s105 23 162 0" fill="none" stroke="#0098b8" stroke-width="14" stroke-linecap="round" opacity=".45"/><circle cx="132" cy="146" r="8" fill="#54d2c6"/><circle cx="167" cy="107" r="6" fill="#54d2c6"/><circle cx="205" cy="143" r="5" fill="#54d2c6"/></svg>
