<svg xmlns="http://www.w3.org/2000/svg" viewBox="0 0 500 500" role="img" aria-labelledby="t"><title id="t">Buckelwal</title><rect width="500" height="500" rx="60" fill="#eaf8ff"/><path d="M60 267c83-91 233-123 363-49 30 17 43 40 50 62-56-19-105-15-150 15-94 63-185 54-263-28z" fill="#2f6f8f"/><path d="M338 223c31-44 70-68 119-73-13 48-8 90 16 126z" fill="#2a607c"/><path d="M135 319c-41 5-77 23-108 55 48 12 95 6 140-18z" fill="#2a607c"/><ellipse cx="248" cy="284" rx="126" ry="48" fill="#f3fbff" opacity=".82"/><circle cx="333" cy="232" r="7" fill="#12333d"/><path d="M190 310c39 12 88 12 145 0" fill="none" stroke="#cde6ef" stroke-width="8" stroke-linecap="round"/><path d="M143 147c31-28 62-28 93 0" fill="none" stroke="#0098b8" stroke-width="12" stroke-linecap="round" opacity=".55"/><path d="M115 114c51-49 101-49 151 0" fill="none" stroke="#54d2c6" stroke-width="9" stroke-linecap="round" opacity=".55"/><path d="M99 385c57-20 101 20 157 0s103 20 158 0" fill="none" stroke="#0098b8" stroke-width="14" stroke-linecap="round" opacity=".5"/></svg>
