<svg xmlns="http://www.w3.org/2000/svg" viewBox="0 0 500 500" role="img" aria-labelledby="t"><title id="t">Pinguin</title><rect width="500" height="500" rx="60" fill="#e8f6ff"/><path d="M83 378c64-34 127-26 184-4 62 24 117 19 153 0l38 68H50z" fill="#dff5ff"/><ellipse cx="250" cy="258" rx="112" ry="154" fill="#12333d"/><ellipse cx="250" cy="284" rx="76" ry="111" fill="#fff5e7"/><ellipse cx="210" cy="164" rx="35" ry="45" fill="#12333d"/><ellipse cx="290" cy="164" rx="35" ry="45" fill="#12333d"/><circle cx="218" cy="166" r="7" fill="#fff"/><circle cx="282" cy="166" r="7" fill="#fff"/><path d="M250 184l34 22-34 22-34-22z" fill="#f4a33d"/><path d="M150 279c-47 32-71 74-72 126" fill="none" stroke="#12333d" stroke-width="28" stroke-linecap="round"/><path d="M350 279c47 32 71 74 72 126" fill="none" stroke="#12333d" stroke-width="28" stroke-linecap="round"/><path d="M207 412c20 16 51 16 71 0" fill="none" stroke="#f4a33d" stroke-width="18" stroke-linecap="round"/><path d="M274 412c20 16 51 16 71 0" fill="none" stroke="#f4a33d" stroke-width="18" stroke-linecap="round"/></svg>
