<svg xmlns="http://www.w3.org/2000/svg" viewBox="0 0 500 500" role="img" aria-labelledby="t"><title id="t">Seelöwe</title><rect width="500" height="500" rx="60" fill="#e9fbf7"/><ellipse cx="250" cy="365" rx="170" ry="45" fill="#f4d58d"/><path d="M102 316c76-81 209-119 286-42 33 33 34 83 4 109-53 45-209 44-280-4-27-18-30-41-10-63z" fill="#b97945"/><ellipse cx="281" cy="250" rx="100" ry="72" fill="#c98a50"/><circle cx="344" cy="223" r="41" fill="#cf955f"/><circle cx="355" cy="214" r="6" fill="#12333d"/><path d="M369 225c23 6 38 16 45 30-21 2-39-4-56-16z" fill="#8a552d"/><path d="M312 245c24 17 48 18 71 0" fill="none" stroke="#65401e" stroke-width="7" stroke-linecap="round"/><path d="M203 319c-43 4-78 20-106 51" fill="none" stroke="#9d6233" stroke-width="32" stroke-linecap="round"/><path d="M163 299c-28 13-44 35-48 66" fill="none" stroke="#a86c3b" stroke-width="20" stroke-linecap="round"/><path d="M124 417c65-16 114 16 175 0s109 16 175 0" fill="none" stroke="#0098b8" stroke-width="14" stroke-linecap="round" opacity=".55"/></svg>
