<svg xmlns="http://www.w3.org/2000/svg" viewBox="0 0 500 500" role="img" aria-labelledby="t"><title id="t">Möwe</title><rect width="500" height="500" rx="60" fill="#e8fbff"/><circle cx="392" cy="95" r="48" fill="#f4d58d"/><path d="M78 205c62-57 128-69 197 12 52-52 104-68 165-33-69 4-113 33-141 82-16 27-54 27-74 2-36-45-84-62-147-63z" fill="#ffffff"/><path d="M102 206c54-32 103-27 147 44" fill="none" stroke="#c9d7dc" stroke-width="12" stroke-linecap="round"/><path d="M276 218c45-39 89-48 139-29" fill="none" stroke="#c9d7dc" stroke-width="12" stroke-linecap="round"/><ellipse cx="270" cy="246" rx="70" ry="45" fill="#fff"/><circle cx="315" cy="232" r="18" fill="#fff"/><circle cx="321" cy="228" r="5" fill="#12333d"/><path d="M334 232l44 16-43 16z" fill="#ffb238"/><path d="M120 360c58-22 100 22 154 0s98 22 156 0" fill="none" stroke="#0098b8" stroke-width="14" stroke-linecap="round" opacity=".55"/><path d="M120 395c58-22 100 22 154 0s98 22 156 0" fill="none" stroke="#54d2c6" stroke-width="12" stroke-linecap="round" opacity=".75"/></svg>
