<svg xmlns="http://www.w3.org/2000/svg" viewBox="0 0 500 500" role="img" aria-labelledby="t"><title id="t">Seepferdchen</title><rect width="500" height="500" rx="60" fill="#e9fbf7"/><path d="M92 396c18-86 22-159 4-233" fill="none" stroke="#2d8f71" stroke-width="16" stroke-linecap="round"/><path d="M407 396c-14-76-12-142 18-214" fill="none" stroke="#2d8f71" stroke-width="15" stroke-linecap="round"/><path d="M140 408c4-72 26-133 66-182" fill="none" stroke="#54a67a" stroke-width="14" stroke-linecap="round"/><path d="M330 394c17-61 15-119-5-174" fill="none" stroke="#54a67a" stroke-width="14" stroke-linecap="round"/><path d="M250 126c54 3 88 38 83 83-4 35-29 58-70 70 31 17 48 41 47 71-2 51-49 76-99 58 40-8 61-31 58-58-3-30-36-47-74-43 48-36 58-83 25-128-19-27-7-53 30-53z" fill="#ffb238"/><path d="M260 143c36 8 55 31 50 62-4 24-23 40-55 48" fill="none" stroke="#e78a28" stroke-width="12" stroke-linecap="round"/><circle cx="282" cy="173" r="8" fill="#12333d"/><path d="M313 176c32-2 49 10 56 35-27 2-46-8-56-35z" fill="#ff7f67"/><path d="M238 272c-23 35-25 69-3 101" fill="none" stroke="#e78a28" stroke-width="12" stroke-linecap="round"/><circle cx="188" cy="205" r="8" fill="#54d2c6"/><circle cx="388" cy="130" r="7" fill="#54d2c6"/><circle cx="127" cy="114" r="6" fill="#54d2c6"/></svg>
